<svg width="42" height="42" viewBox="0 0 42 42" fill="none" xmlns="http://www.w3.org/2000/svg">
<g clip-path="url(#clip0_8_1235)">
<path d="M10.5 31.5L6.475 35.525C5.92084 36.0792 5.28617 36.2034 4.571 35.8978C3.85584 35.5921 3.49884 35.0449 3.5 34.2563V7C3.5 6.0375 3.843 5.21325 4.529 4.52725C5.215 3.84125 6.03867 3.49883 7 3.5H24.675C24.5583 4.08333 24.5 4.66667 24.5 5.25C24.5 5.83333 24.5583 6.41667 24.675 7H7V28H35V13.825C35.6708 13.6792 36.2979 13.482 36.8813 13.2335C37.4646 12.985 38.0042 12.6572 38.5 12.25V28C38.5 28.9625 38.157 29.7868 37.471 30.4728C36.785 31.1588 35.9613 31.5012 35 31.5H10.5ZM22.75 24.5C23.2458 24.5 23.6618 24.332 23.9978 23.996C24.3338 23.66 24.5012 23.2447 24.5 22.75C24.5 22.2542 24.332 21.8382 23.996 21.5022C23.66 21.1662 23.2447 20.9988 22.75 21H12.25C11.7542 21 11.3383 21.168 11.0023 21.504C10.6663 21.84 10.4988 22.2553 10.5 22.75C10.5 23.2458 10.668 23.6618 11.004 23.9978C11.34 24.3338 11.7553 24.5012 12.25 24.5H22.75ZM29.75 19.25C30.2458 19.25 30.6618 19.082 30.9978 18.746C31.3338 18.41 31.5012 17.9947 31.5 17.5C31.5 17.0042 31.332 16.5882 30.996 16.2522C30.66 15.9162 30.2447 15.7488 29.75 15.75H12.25C11.7542 15.75 11.3383 15.918 11.0023 16.254C10.6663 16.59 10.4988 17.0053 10.5 17.5C10.5 17.9958 10.668 18.4118 11.004 18.7478C11.34 19.0838 11.7553 19.2512 12.25 19.25H29.75ZM26.25 10.5H12.25C11.7542 10.5 11.3383 10.668 11.0023 11.004C10.6663 11.34 10.4988 11.7553 10.5 12.25C10.5 12.7458 10.668 13.1617 11.004 13.4977C11.34 13.8337 11.7553 14.0012 12.25 14H31.5V13.825C30.4208 13.5917 29.4362 13.1903 28.546 12.621C27.6558 12.0517 26.8905 11.3447 26.25 10.5ZM33.25 10.5C31.7917 10.5 30.5521 9.98958 29.5313 8.96875C28.5104 7.94792 28 6.70833 28 5.25C28 3.79167 28.5104 2.55208 29.5313 1.53125C30.5521 0.510417 31.7917 0 33.25 0C34.7083 0 35.9479 0.510417 36.9688 1.53125C37.9896 2.55208 38.5 3.79167 38.5 5.25C38.5 6.70833 37.9896 7.94792 36.9688 8.96875C35.9479 9.98958 34.7083 10.5 33.25 10.5Z" fill="#C7C6C5"/>
</g>
<defs>
<clipPath id="clip0_8_1235">
<rect width="42" height="42" fill="white"/>
</clipPath>
</defs>
</svg>
