<svg width="42" height="42" viewBox="0 0 42 42" fill="none" xmlns="http://www.w3.org/2000/svg">
<path fill-rule="evenodd" clip-rule="evenodd" d="M14 12.25C14 10.3935 14.7375 8.61301 16.0503 7.30025C17.363 5.9875 19.1435 5.25 21 5.25C22.8565 5.25 24.637 5.9875 25.9497 7.30025C27.2625 8.61301 28 10.3935 28 12.25C28 14.1065 27.2625 15.887 25.9497 17.1997C24.637 18.5125 22.8565 19.25 21 19.25C19.1435 19.25 17.363 18.5125 16.0503 17.1997C14.7375 15.887 14 14.1065 14 12.25ZM14 22.75C11.6794 22.75 9.45376 23.6719 7.81282 25.3128C6.17187 26.9538 5.25 29.1794 5.25 31.5C5.25 32.8924 5.80312 34.2277 6.78769 35.2123C7.77226 36.1969 9.10761 36.75 10.5 36.75H31.5C32.8924 36.75 34.2277 36.1969 35.2123 35.2123C36.1969 34.2277 36.75 32.8924 36.75 31.5C36.75 29.1794 35.8281 26.9538 34.1872 25.3128C32.5462 23.6719 30.3206 22.75 28 22.75H14Z" fill="#242760"/>
</svg>
